<mxfile host="app.diagrams.net" agent="Mozilla/5.0 (Windows NT 10.0; Win64; x64) AppleWebKit/537.36 (KHTML, like Gecko) Chrome/131.0.0.0 Safari/537.36" version="25.0.1">
  <diagram id="ZpaYJguhu72aNwgWVAWn" name="Page-1">
    <mxGraphModel dx="3102" dy="1148" grid="1" gridSize="10" guides="1" tooltips="1" connect="1" arrows="1" fold="1" page="1" pageScale="1" pageWidth="850" pageHeight="1100" math="0" shadow="0">
      <root>
        <mxCell id="0" />
        <mxCell id="1" parent="0" />
        <mxCell id="IZR9oUKfis4_ZGRq2fiG-9" value="" style="rounded=1;whiteSpace=wrap;html=1;" parent="1" vertex="1">
          <mxGeometry x="-50" y="40" width="1850" height="510" as="geometry" />
        </mxCell>
        <mxCell id="Kx0-OK1zSEs6s6_5W6BD-1" value="" style="endArrow=none;html=1;entryX=0.413;entryY=0.006;entryDx=0;entryDy=0;entryPerimeter=0;" parent="1" target="IZR9oUKfis4_ZGRq2fiG-9" edge="1">
          <mxGeometry width="50" height="50" relative="1" as="geometry">
            <mxPoint x="715" y="400" as="sourcePoint" />
            <mxPoint x="715" y="80" as="targetPoint" />
          </mxGeometry>
        </mxCell>
        <mxCell id="Kx0-OK1zSEs6s6_5W6BD-2" value="WebApi" style="rounded=1;whiteSpace=wrap;html=1;dashed=1;fillColor=#d5e8d4;strokeColor=#82b366;" parent="1" vertex="1">
          <mxGeometry x="567.5" y="80" width="80" height="30" as="geometry" />
        </mxCell>
        <mxCell id="Kx0-OK1zSEs6s6_5W6BD-4" value="REST&lt;br&gt;WEB API" style="rounded=1;whiteSpace=wrap;html=1;" parent="1" vertex="1">
          <mxGeometry x="540" y="136.25" width="130" height="227.5" as="geometry" />
        </mxCell>
        <mxCell id="Kx0-OK1zSEs6s6_5W6BD-8" value="" style="shape=flexArrow;endArrow=classic;html=1;width=8;endSize=3.67;endWidth=8;" parent="1" edge="1">
          <mxGeometry width="50" height="50" relative="1" as="geometry">
            <mxPoint x="755" y="220" as="sourcePoint" />
            <mxPoint x="825" y="220" as="targetPoint" />
          </mxGeometry>
        </mxCell>
        <mxCell id="Kx0-OK1zSEs6s6_5W6BD-9" value="" style="shape=flexArrow;endArrow=classic;html=1;" parent="1" edge="1">
          <mxGeometry width="50" height="50" relative="1" as="geometry">
            <mxPoint x="510" y="280" as="sourcePoint" />
            <mxPoint x="240" y="280" as="targetPoint" />
          </mxGeometry>
        </mxCell>
        <mxCell id="Kx0-OK1zSEs6s6_5W6BD-10" value="Request" style="text;html=1;strokeColor=none;fillColor=none;align=center;verticalAlign=middle;whiteSpace=wrap;rounded=0;" parent="1" vertex="1">
          <mxGeometry x="350" y="192.5" width="40" height="20" as="geometry" />
        </mxCell>
        <mxCell id="Kx0-OK1zSEs6s6_5W6BD-13" value="Response" style="text;html=1;strokeColor=none;fillColor=none;align=center;verticalAlign=middle;whiteSpace=wrap;rounded=0;" parent="1" vertex="1">
          <mxGeometry x="350" y="250" width="40" height="20" as="geometry" />
        </mxCell>
        <mxCell id="Kx0-OK1zSEs6s6_5W6BD-15" value="" style="points=[[0.13,0.02,0],[0.5,0,0],[0.87,0.02,0],[0.885,0.4,0],[0.985,0.985,0],[0.5,1,0],[0.015,0.985,0],[0.115,0.4,0]];verticalLabelPosition=bottom;html=1;verticalAlign=top;aspect=fixed;align=center;pointerEvents=1;shape=mxgraph.cisco19.laptop;fillColor=#005073;strokeColor=none;" parent="1" vertex="1">
          <mxGeometry x="150" y="160" width="50" height="35" as="geometry" />
        </mxCell>
        <mxCell id="Kx0-OK1zSEs6s6_5W6BD-16" value="" style="points=[[0.03,0.03,0],[0.5,0,0],[0.97,0.03,0],[1,0.4,0],[0.97,0.745,0],[0.5,1,0],[0.03,0.745,0],[0,0.4,0]];verticalLabelPosition=bottom;html=1;verticalAlign=top;aspect=fixed;align=center;pointerEvents=1;shape=mxgraph.cisco19.workstation;fillColor=#005073;strokeColor=none;" parent="1" vertex="1">
          <mxGeometry x="150" y="220" width="50" height="40" as="geometry" />
        </mxCell>
        <mxCell id="Kx0-OK1zSEs6s6_5W6BD-17" value="" style="html=1;verticalLabelPosition=bottom;align=center;labelBackgroundColor=#ffffff;verticalAlign=top;strokeWidth=2;strokeColor=#0080F0;shadow=0;dashed=0;shape=mxgraph.ios7.icons.smartphone;" parent="1" vertex="1">
          <mxGeometry x="166" y="295" width="18" height="30" as="geometry" />
        </mxCell>
        <mxCell id="Kx0-OK1zSEs6s6_5W6BD-18" value="" style="rounded=1;whiteSpace=wrap;html=1;fillColor=none;" parent="1" vertex="1">
          <mxGeometry x="130" y="145" width="90" height="220" as="geometry" />
        </mxCell>
        <mxCell id="Kx0-OK1zSEs6s6_5W6BD-21" value="" style="endArrow=none;html=1;exitX=0.654;exitY=1.003;exitDx=0;exitDy=0;exitPerimeter=0;" parent="1" source="IZR9oUKfis4_ZGRq2fiG-9" edge="1">
          <mxGeometry width="50" height="50" relative="1" as="geometry">
            <mxPoint x="1160" y="360" as="sourcePoint" />
            <mxPoint x="1160" y="40" as="targetPoint" />
          </mxGeometry>
        </mxCell>
        <mxCell id="Kx0-OK1zSEs6s6_5W6BD-22" value="Application" style="rounded=1;whiteSpace=wrap;html=1;dashed=1;fillColor=#d5e8d4;strokeColor=#82b366;" parent="1" vertex="1">
          <mxGeometry x="890" y="80" width="80" height="30" as="geometry" />
        </mxCell>
        <mxCell id="Kx0-OK1zSEs6s6_5W6BD-25" value="Query" style="rounded=1;whiteSpace=wrap;html=1;" parent="1" vertex="1">
          <mxGeometry x="835" y="192.5" width="70" height="50" as="geometry" />
        </mxCell>
        <mxCell id="Kx0-OK1zSEs6s6_5W6BD-26" value="Mediator" style="rounded=1;whiteSpace=wrap;html=1;" parent="1" vertex="1">
          <mxGeometry x="685" y="190" width="60" height="130" as="geometry" />
        </mxCell>
        <mxCell id="Kx0-OK1zSEs6s6_5W6BD-30" value="" style="shape=flexArrow;endArrow=classic;html=1;" parent="1" edge="1">
          <mxGeometry width="50" height="50" relative="1" as="geometry">
            <mxPoint x="240" y="230" as="sourcePoint" />
            <mxPoint x="510" y="229.82" as="targetPoint" />
          </mxGeometry>
        </mxCell>
        <mxCell id="Kx0-OK1zSEs6s6_5W6BD-31" value="" style="shape=flexArrow;endArrow=classic;html=1;width=8;endSize=3.67;endWidth=8;" parent="1" edge="1">
          <mxGeometry width="50" height="50" relative="1" as="geometry">
            <mxPoint x="925" y="220" as="sourcePoint" />
            <mxPoint x="995" y="220" as="targetPoint" />
          </mxGeometry>
        </mxCell>
        <mxCell id="Kx0-OK1zSEs6s6_5W6BD-32" value="" style="shape=flexArrow;endArrow=classic;html=1;width=8;endSize=3.67;endWidth=8;" parent="1" edge="1">
          <mxGeometry width="50" height="50" relative="1" as="geometry">
            <mxPoint x="995" y="290" as="sourcePoint" />
            <mxPoint x="925" y="290" as="targetPoint" />
          </mxGeometry>
        </mxCell>
        <mxCell id="Kx0-OK1zSEs6s6_5W6BD-33" value="Query&lt;br&gt;Response" style="rounded=1;whiteSpace=wrap;html=1;" parent="1" vertex="1">
          <mxGeometry x="835" y="270" width="70" height="50" as="geometry" />
        </mxCell>
        <mxCell id="Kx0-OK1zSEs6s6_5W6BD-34" value="" style="shape=flexArrow;endArrow=classic;html=1;width=8;endSize=3.67;endWidth=8;" parent="1" edge="1">
          <mxGeometry width="50" height="50" relative="1" as="geometry">
            <mxPoint x="825" y="294.5" as="sourcePoint" />
            <mxPoint x="755" y="294.5" as="targetPoint" />
          </mxGeometry>
        </mxCell>
        <mxCell id="Kx0-OK1zSEs6s6_5W6BD-42" value="Handler" style="rounded=1;whiteSpace=wrap;html=1;" parent="1" vertex="1">
          <mxGeometry x="1010" y="185" width="110" height="140" as="geometry" />
        </mxCell>
        <mxCell id="Kx0-OK1zSEs6s6_5W6BD-49" value="" style="endArrow=none;html=1;" parent="1" edge="1">
          <mxGeometry width="50" height="50" relative="1" as="geometry">
            <mxPoint x="1160" y="240" as="sourcePoint" />
            <mxPoint x="1800" y="240" as="targetPoint" />
          </mxGeometry>
        </mxCell>
        <mxCell id="Kx0-OK1zSEs6s6_5W6BD-50" value="Persistence" style="rounded=1;whiteSpace=wrap;html=1;dashed=1;fillColor=#d5e8d4;strokeColor=#82b366;" parent="1" vertex="1">
          <mxGeometry x="1320" y="80" width="80" height="30" as="geometry" />
        </mxCell>
        <mxCell id="Kx0-OK1zSEs6s6_5W6BD-51" value="Database" style="shape=cylinder3;whiteSpace=wrap;html=1;boundedLbl=1;backgroundOutline=1;size=15;fillColor=#ffffff;gradientColor=none;" parent="1" vertex="1">
          <mxGeometry x="1460" y="137.5" width="60" height="80" as="geometry" />
        </mxCell>
        <mxCell id="Kx0-OK1zSEs6s6_5W6BD-53" value="EF Core" style="rounded=1;whiteSpace=wrap;html=1;" parent="1" vertex="1">
          <mxGeometry x="1320" y="160" width="60" height="30" as="geometry" />
        </mxCell>
        <mxCell id="Kx0-OK1zSEs6s6_5W6BD-56" value="" style="shape=flexArrow;endArrow=classic;startArrow=classic;html=1;width=11.03448275862069;startSize=7.151724137931034;endSize=7.151724137931034;" parent="1" edge="1">
          <mxGeometry width="50" height="50" relative="1" as="geometry">
            <mxPoint x="1385" y="176.79000000000002" as="sourcePoint" />
            <mxPoint x="1455" y="176.95" as="targetPoint" />
          </mxGeometry>
        </mxCell>
        <mxCell id="Kx0-OK1zSEs6s6_5W6BD-58" value="" style="shape=flexArrow;endArrow=classic;startArrow=classic;html=1;width=11.03448275862069;startSize=7.151724137931034;endSize=7.151724137931034;" parent="1" edge="1">
          <mxGeometry width="50" height="50" relative="1" as="geometry">
            <mxPoint x="1128" y="209" as="sourcePoint" />
            <mxPoint x="1211" y="180" as="targetPoint" />
          </mxGeometry>
        </mxCell>
        <mxCell id="Kx0-OK1zSEs6s6_5W6BD-59" value="" style="shape=flexArrow;endArrow=classic;startArrow=classic;html=1;width=11.03448275862069;startSize=7.151724137931034;endSize=7.151724137931034;" parent="1" edge="1">
          <mxGeometry width="50" height="50" relative="1" as="geometry">
            <mxPoint x="1130" y="282" as="sourcePoint" />
            <mxPoint x="1302" y="336" as="targetPoint" />
          </mxGeometry>
        </mxCell>
        <mxCell id="Kx0-OK1zSEs6s6_5W6BD-60" value="Domain" style="rounded=1;whiteSpace=wrap;html=1;dashed=1;fillColor=#d5e8d4;strokeColor=#82b366;" parent="1" vertex="1">
          <mxGeometry x="1410" y="270" width="80" height="30" as="geometry" />
        </mxCell>
        <mxCell id="Kx0-OK1zSEs6s6_5W6BD-61" value="Entities" style="rounded=1;whiteSpace=wrap;html=1;" parent="1" vertex="1">
          <mxGeometry x="1310" y="322.5" width="80" height="30" as="geometry" />
        </mxCell>
        <mxCell id="Kx0-OK1zSEs6s6_5W6BD-62" value="Service abstractions" style="rounded=1;whiteSpace=wrap;html=1;" parent="1" vertex="1">
          <mxGeometry x="1510" y="322.5" width="80" height="30" as="geometry" />
        </mxCell>
        <mxCell id="Kx0-OK1zSEs6s6_5W6BD-66" value="" style="endArrow=none;html=1;" parent="1" edge="1">
          <mxGeometry width="50" height="50" relative="1" as="geometry">
            <mxPoint x="-50" y="400" as="sourcePoint" />
            <mxPoint x="1800" y="400" as="targetPoint" />
          </mxGeometry>
        </mxCell>
        <mxCell id="Kx0-OK1zSEs6s6_5W6BD-68" value="Common" style="rounded=1;whiteSpace=wrap;html=1;dashed=1;fillColor=#d5e8d4;strokeColor=#82b366;" parent="1" vertex="1">
          <mxGeometry x="470" y="422" width="80" height="30" as="geometry" />
        </mxCell>
        <mxCell id="Kx0-OK1zSEs6s6_5W6BD-69" value="Constants" style="rounded=1;whiteSpace=wrap;html=1;" parent="1" vertex="1">
          <mxGeometry x="425" y="502" width="80" height="30" as="geometry" />
        </mxCell>
        <mxCell id="Kx0-OK1zSEs6s6_5W6BD-70" value="Enumerations" style="rounded=1;whiteSpace=wrap;html=1;" parent="1" vertex="1">
          <mxGeometry x="530" y="502" width="80" height="30" as="geometry" />
        </mxCell>
        <mxCell id="Kx0-OK1zSEs6s6_5W6BD-72" value="Middleware" style="rounded=1;whiteSpace=wrap;html=1;" parent="1" vertex="1">
          <mxGeometry x="565" y="270" width="75" height="37.5" as="geometry" />
        </mxCell>
        <mxCell id="Kx0-OK1zSEs6s6_5W6BD-73" value="Controllers" style="rounded=1;whiteSpace=wrap;html=1;" parent="1" vertex="1">
          <mxGeometry x="567.5" y="150" width="75" height="37.5" as="geometry" />
        </mxCell>
        <mxCell id="IZR9oUKfis4_ZGRq2fiG-1" value="Client" style="rounded=1;whiteSpace=wrap;html=1;dashed=1;fillColor=#d5e8d4;strokeColor=#82b366;" parent="1" vertex="1">
          <mxGeometry x="135" y="80" width="80" height="30" as="geometry" />
        </mxCell>
        <mxCell id="IZR9oUKfis4_ZGRq2fiG-4" value="" style="endArrow=none;html=1;entryX=0.312;entryY=0.006;entryDx=0;entryDy=0;entryPerimeter=0;" parent="1" target="IZR9oUKfis4_ZGRq2fiG-9" edge="1">
          <mxGeometry width="50" height="50" relative="1" as="geometry">
            <mxPoint x="525" y="400" as="sourcePoint" />
            <mxPoint x="525" y="80" as="targetPoint" />
          </mxGeometry>
        </mxCell>
        <mxCell id="IZR9oUKfis4_ZGRq2fiG-5" value="" style="endArrow=none;html=1;entryX=0.152;entryY=0.006;entryDx=0;entryDy=0;entryPerimeter=0;" parent="1" target="IZR9oUKfis4_ZGRq2fiG-9" edge="1">
          <mxGeometry width="50" height="50" relative="1" as="geometry">
            <mxPoint x="230" y="400" as="sourcePoint" />
            <mxPoint x="230" y="80" as="targetPoint" />
          </mxGeometry>
        </mxCell>
        <mxCell id="IZR9oUKfis4_ZGRq2fiG-6" value="DTOs" style="rounded=1;whiteSpace=wrap;html=1;dashed=1;fillColor=#d5e8d4;strokeColor=#82b366;" parent="1" vertex="1">
          <mxGeometry x="330" y="80" width="80" height="30" as="geometry" />
        </mxCell>
        <mxCell id="IZR9oUKfis4_ZGRq2fiG-8" value="Blazor Web Assembly Application" style="rounded=1;whiteSpace=wrap;html=1;" parent="1" vertex="1">
          <mxGeometry x="-20" y="175" width="130" height="150" as="geometry" />
        </mxCell>
        <mxCell id="oJcua5HaWns5q6F7jPkG-1" value="CLI" style="rounded=1;whiteSpace=wrap;html=1;dashed=1;fillColor=#d5e8d4;strokeColor=#82b366;" parent="1" vertex="1">
          <mxGeometry x="1650" y="80" width="80" height="30" as="geometry" />
        </mxCell>
        <mxCell id="oJcua5HaWns5q6F7jPkG-6" value="Scrape HTML" style="rounded=1;whiteSpace=wrap;html=1;" parent="1" vertex="1">
          <mxGeometry x="1720" y="137.5" width="50" height="75" as="geometry" />
        </mxCell>
        <mxCell id="oJcua5HaWns5q6F7jPkG-7" value="" style="shape=flexArrow;endArrow=classic;startArrow=classic;html=1;width=11.03448275862069;startSize=7.151724137931034;endSize=7.151724137931034;" parent="1" edge="1">
          <mxGeometry width="50" height="50" relative="1" as="geometry">
            <mxPoint x="1527" y="175" as="sourcePoint" />
            <mxPoint x="1595" y="175" as="targetPoint" />
          </mxGeometry>
        </mxCell>
        <mxCell id="oJcua5HaWns5q6F7jPkG-8" value="" style="endArrow=none;html=1;entryX=0.87;entryY=0;entryDx=0;entryDy=0;entryPerimeter=0;" parent="1" target="IZR9oUKfis4_ZGRq2fiG-9" edge="1">
          <mxGeometry width="50" height="50" relative="1" as="geometry">
            <mxPoint x="1560" y="240" as="sourcePoint" />
            <mxPoint x="1560" y="80" as="targetPoint" />
          </mxGeometry>
        </mxCell>
        <mxCell id="oJcua5HaWns5q6F7jPkG-9" value="Repository" style="rounded=1;whiteSpace=wrap;html=1;" parent="1" vertex="1">
          <mxGeometry x="1215" y="159.38" width="60" height="30" as="geometry" />
        </mxCell>
        <mxCell id="oJcua5HaWns5q6F7jPkG-10" value="Create database" style="rounded=1;whiteSpace=wrap;html=1;" parent="1" vertex="1">
          <mxGeometry x="1600" y="137.5" width="60" height="73.75" as="geometry" />
        </mxCell>
        <mxCell id="oJcua5HaWns5q6F7jPkG-11" value="" style="shape=flexArrow;endArrow=classic;html=1;width=8;endSize=3.67;endWidth=8;" parent="1" edge="1">
          <mxGeometry width="50" height="50" relative="1" as="geometry">
            <mxPoint x="1710" y="175" as="sourcePoint" />
            <mxPoint x="1664" y="175" as="targetPoint" />
          </mxGeometry>
        </mxCell>
        <mxCell id="oJcua5HaWns5q6F7jPkG-12" value="" style="shape=flexArrow;endArrow=classic;html=1;width=8;endSize=3.67;endWidth=8;" parent="1" edge="1">
          <mxGeometry width="50" height="50" relative="1" as="geometry">
            <mxPoint x="1314" y="174" as="sourcePoint" />
            <mxPoint x="1278" y="174.09" as="targetPoint" />
          </mxGeometry>
        </mxCell>
        <mxCell id="oJcua5HaWns5q6F7jPkG-13" value="Exceptions" style="rounded=1;whiteSpace=wrap;html=1;" parent="1" vertex="1">
          <mxGeometry x="1410" y="322.5" width="80" height="30" as="geometry" />
        </mxCell>
        <mxCell id="oJcua5HaWns5q6F7jPkG-16" value="Filters" style="rounded=1;whiteSpace=wrap;html=1;" parent="1" vertex="1">
          <mxGeometry x="567.5" y="193.75" width="75" height="37.5" as="geometry" />
        </mxCell>
        <mxCell id="oJcua5HaWns5q6F7jPkG-17" value="Validation" style="rounded=1;whiteSpace=wrap;html=1;" parent="1" vertex="1">
          <mxGeometry x="565" y="315" width="75" height="37.5" as="geometry" />
        </mxCell>
        <mxCell id="oJcua5HaWns5q6F7jPkG-18" value="External API" style="ellipse;shape=cloud;whiteSpace=wrap;html=1;" parent="1" vertex="1">
          <mxGeometry x="1580" y="420" width="170" height="110" as="geometry" />
        </mxCell>
        <mxCell id="oJcua5HaWns5q6F7jPkG-19" value="" style="shape=flexArrow;endArrow=classic;startArrow=classic;html=1;width=11.03448275862069;startSize=7.151724137931034;endSize=7.151724137931034;" parent="1" edge="1">
          <mxGeometry width="50" height="50" relative="1" as="geometry">
            <mxPoint x="1128" y="319" as="sourcePoint" />
            <mxPoint x="1309" y="475" as="targetPoint" />
          </mxGeometry>
        </mxCell>
        <mxCell id="2agW0kMSl_dSqR8MdkeC-2" value="Authentication" style="rounded=1;whiteSpace=wrap;html=1;" vertex="1" parent="1">
          <mxGeometry x="1320" y="460" width="110" height="30" as="geometry" />
        </mxCell>
        <mxCell id="2agW0kMSl_dSqR8MdkeC-4" value="Request" style="text;html=1;strokeColor=none;fillColor=none;align=center;verticalAlign=middle;whiteSpace=wrap;rounded=0;" vertex="1" parent="1">
          <mxGeometry x="1480" y="422" width="60" height="20" as="geometry" />
        </mxCell>
        <mxCell id="2agW0kMSl_dSqR8MdkeC-5" value="" style="shape=flexArrow;endArrow=classic;html=1;" edge="1" parent="1">
          <mxGeometry width="50" height="50" relative="1" as="geometry">
            <mxPoint x="1438" y="449" as="sourcePoint" />
            <mxPoint x="1590" y="449" as="targetPoint" />
          </mxGeometry>
        </mxCell>
        <mxCell id="2agW0kMSl_dSqR8MdkeC-6" value="Response" style="text;html=1;strokeColor=none;fillColor=none;align=center;verticalAlign=middle;whiteSpace=wrap;rounded=0;" vertex="1" parent="1">
          <mxGeometry x="1480" y="472" width="60" height="20" as="geometry" />
        </mxCell>
        <mxCell id="2agW0kMSl_dSqR8MdkeC-7" value="" style="shape=flexArrow;endArrow=classic;html=1;" edge="1" parent="1">
          <mxGeometry width="50" height="50" relative="1" as="geometry">
            <mxPoint x="1590" y="500" as="sourcePoint" />
            <mxPoint x="1430" y="499.5" as="targetPoint" />
          </mxGeometry>
        </mxCell>
      </root>
    </mxGraphModel>
  </diagram>
</mxfile>
